HIERARCHY
ROOT Hips
{
	OFFSET 0.000000 0.000000 0.000000
	CHANNELS 6 Xposition Yposition Zposition Xrotation Yrotation Zrotation
	JOINT Thigh.L
	{
		OFFSET 0.056181 0.027175 -0.095908
		CHANNELS 3 Xrotation Yrotation Zrotation
		JOINT Shin.L
		{
			OFFSET 0.060954 0.005335 -0.410453
			CHANNELS 3 Xrotation Yrotation Zrotation
			JOINT Foot.L
			{
				OFFSET -0.043090 0.032046 -0.435746
				CHANNELS 3 Xrotation Yrotation Zrotation
				JOINT Toe.L
				{
					OFFSET 0.048895 -0.126928 -0.064047
					CHANNELS 3 Xrotation Yrotation Zrotation
					End Site
					{
						OFFSET 0.000000 0.050000 0.000000
					}
				}
			}
		}
	}
	JOINT Thigh.R
	{
		OFFSET -0.061306 0.021239 -0.108684
		CHANNELS 3 Xrotation Yrotation Zrotation
		JOINT Shin.R
		{
			OFFSET -0.049801 0.013676 -0.391718
			CHANNELS 3 Xrotation Yrotation Zrotation
			JOINT Foot.R
			{
				OFFSET 0.014442 0.020033 -0.444695
				CHANNELS 3 Xrotation Yrotation Zrotation
				JOINT Toe.R
				{
					OFFSET -0.040059 -0.127754 -0.063925
					CHANNELS 3 Xrotation Yrotation Zrotation
					End Site
					{
						OFFSET 0.000000 0.050000 0.000000
					}
				}
			}
		}
	}
	JOINT Spine
	{
		OFFSET -0.002911 0.028209 0.115420
		CHANNELS 3 Xrotation Yrotation Zrotation
		JOINT Spine.2
		{
			OFFSET 0.009557 0.007067 0.143746
			CHANNELS 3 Xrotation Yrotation Zrotation
			JOINT Chest
			{
				OFFSET -0.010993 -0.023917 0.057263
				CHANNELS 3 Xrotation Yrotation Zrotation
				JOINT Neck
				{
					OFFSET -0.012434 0.026038 0.171901
					CHANNELS 3 Xrotation Yrotation Zrotation
					JOINT Head
					{
						OFFSET 0.025760 -0.021164 0.171374
						CHANNELS 3 Xrotation Yrotation Zrotation
						End Site
						{
							OFFSET 0.000000 0.050000 0.000000
						}
					}
				}
				JOINT Clavicle.L
				{
					OFFSET 0.047571 0.004466 0.088509
					CHANNELS 3 Xrotation Yrotation Zrotation
					JOINT UpperArm.L
					{
						OFFSET 0.127810 0.014539 0.058761
						CHANNELS 3 Xrotation Yrotation Zrotation
						JOINT ForeArm.L
						{
							OFFSET 0.268426 0.043747 -0.075798
							CHANNELS 3 Xrotation Yrotation Zrotation
							JOINT Hand.L
							{
								OFFSET 0.272780 0.000365 0.022790
								CHANNELS 3 Xrotation Yrotation Zrotation
								JOINT Thumb1.L
								{
									OFFSET 0.154583 0.000160 0.009991
									CHANNELS 3 Xrotation Yrotation Zrotation
									JOINT Thumb2.L
									{
										OFFSET 0.029896 0.000040 0.002498
										CHANNELS 3 Xrotation Yrotation Zrotation
										End Site
										{
											OFFSET 0.024913 0.000033 0.002081
										}
									}
								}
								JOINT Index1.L
								{
									OFFSET 0.137583 0.000160 0.009991
									CHANNELS 3 Xrotation Yrotation Zrotation
									JOINT Index2.L
									{
										OFFSET 0.029896 0.000040 0.002498
										CHANNELS 3 Xrotation Yrotation Zrotation
										JOINT Index3.L
										{
											OFFSET 0.021924 0.000029 0.001832
											CHANNELS 3 Xrotation Yrotation Zrotation
											End Site
											{
												OFFSET 0.017937 0.000024 0.001499
											}
										}
									}
								}
								JOINT Middle1.L
								{
									OFFSET 0.119583 0.000160 0.009991
									CHANNELS 3 Xrotation Yrotation Zrotation
									JOINT Middle2.L
									{
										OFFSET 0.030892 0.000041 0.002581
										CHANNELS 3 Xrotation Yrotation Zrotation
										JOINT Middle3.L
										{
											OFFSET 0.021924 0.000029 0.001832
											CHANNELS 3 Xrotation Yrotation Zrotation
											End Site
											{
												OFFSET 0.017937 0.000024 0.001499
											}
										}
									}
								}
								JOINT Ring1.L
								{
									OFFSET 0.101583 0.000160 0.009991
									CHANNELS 3 Xrotation Yrotation Zrotation
									JOINT Ring2.L
									{
										OFFSET 0.028899 0.000039 0.002414
										CHANNELS 3 Xrotation Yrotation Zrotation
										JOINT Ring3.L
										{
											OFFSET 0.019931 0.000027 0.001665
											CHANNELS 3 Xrotation Yrotation Zrotation
											End Site
											{
												OFFSET 0.016941 0.000023 0.001415
											}
										}
									}
								}
								JOINT Pinky1.L
								{
									OFFSET 0.085583 0.000160 0.009991
									CHANNELS 3 Xrotation Yrotation Zrotation
									JOINT Pinky2.L
									{
										OFFSET 0.023917 0.000032 0.001998
										CHANNELS 3 Xrotation Yrotation Zrotation
										JOINT Pinky3.L
										{
											OFFSET 0.016941 0.000023 0.001415
											CHANNELS 3 Xrotation Yrotation Zrotation
											End Site
											{
												OFFSET 0.013951 0.000019 0.001166
											}
										}
									}
								}
							}
						}
					}
				}
				JOINT Clavicle.R
				{
					OFFSET -0.048830 0.010680 0.087606
					CHANNELS 3 Xrotation Yrotation Zrotation
					JOINT UpperArm.R
					{
						OFFSET -0.110879 0.010934 0.054821
						CHANNELS 3 Xrotation Yrotation Zrotation
						JOINT ForeArm.R
						{
							OFFSET -0.286729 0.028180 -0.039371
							CHANNELS 3 Xrotation Yrotation Zrotation
							JOINT Hand.R
							{
								OFFSET -0.269133 0.013990 -0.005534
								CHANNELS 3 Xrotation Yrotation Zrotation
								JOINT Thumb1.R
								{
									OFFSET -0.154813 0.006228 -0.002464
									CHANNELS 3 Xrotation Yrotation Zrotation
									JOINT Thumb2.R
									{
										OFFSET -0.029953 0.001557 -0.000616
										CHANNELS 3 Xrotation Yrotation Zrotation
										End Site
										{
											OFFSET -0.024961 0.001297 -0.000513
										}
									}
								}
								JOINT Index1.R
								{
									OFFSET -0.137813 0.006228 -0.002464
									CHANNELS 3 Xrotation Yrotation Zrotation
									JOINT Index2.R
									{
										OFFSET -0.029953 0.001557 -0.000616
										CHANNELS 3 Xrotation Yrotation Zrotation
										JOINT Index3.R
										{
											OFFSET -0.021966 0.001142 -0.000452
											CHANNELS 3 Xrotation Yrotation Zrotation
											End Site
											{
												OFFSET -0.017972 0.000934 -0.000370
											}
										}
									}
								}
								JOINT Middle1.R
								{
									OFFSET -0.119813 0.006228 -0.002464
									CHANNELS 3 Xrotation Yrotation Zrotation
									JOINT Middle2.R
									{
										OFFSET -0.030952 0.001609 -0.000636
										CHANNELS 3 Xrotation Yrotation Zrotation
										JOINT Middle3.R
										{
											OFFSET -0.021966 0.001142 -0.000452
											CHANNELS 3 Xrotation Yrotation Zrotation
											End Site
											{
												OFFSET -0.017972 0.000934 -0.000370
											}
										}
									}
								}
								JOINT Ring1.R
								{
									OFFSET -0.101813 0.006228 -0.002464
									CHANNELS 3 Xrotation Yrotation Zrotation
									JOINT Ring2.R
									{
										OFFSET -0.028955 0.001505 -0.000595
										CHANNELS 3 Xrotation Yrotation Zrotation
										JOINT Ring3.R
										{
											OFFSET -0.019969 0.001038 -0.000411
											CHANNELS 3 Xrotation Yrotation Zrotation
											End Site
											{
												OFFSET -0.016974 0.000882 -0.000349
											}
										}
									}
								}
								JOINT Pinky1.R
								{
									OFFSET -0.085813 0.006228 -0.002464
									CHANNELS 3 Xrotation Yrotation Zrotation
									JOINT Pinky2.R
									{
										OFFSET -0.023963 0.001246 -0.000493
										CHANNELS 3 Xrotation Yrotation Zrotation
										JOINT Pinky3.R
										{
											OFFSET -0.016974 0.000882 -0.000349
											CHANNELS 3 Xrotation Yrotation Zrotation
											End Site
											{
												OFFSET -0.013978 0.000727 -0.000287
											}
										}
									}
								}
							}
						}
					}
				}
			}
		}
	}
}
MOTION
Frames: 5
Frame Time: 0.04166667
0.043595 -0.199856 1.315017 -7.972108 -1.098679 1.308193 -83.004038 -5.573880 -15.485775 126.883806 9.335878 -21.424609 -6.280335 -0.386115 8.183393 -0.265389 -0.726829 -0.711664 -85.602472 14.534154 14.735831 130.516604 -13.215921 12.683278 -9.471009 3.934060 -1.651391 -1.311100 -4.443674 0.070322 78.889677 -2.051449 0.827986 -7.504410 -3.361903 -0.546787 3.052755 1.100372 0.703352 -8.183984 8.000244 6.026615 -24.528440 -4.834122 -8.288392 -4.852699 7.743317 -37.352185 -7.357665 29.649781 -19.724521 -2.017268 -2.865285 -22.417787 -7.748007 -25.916908 -8.688517 0.000000 0.000000 0.000000 0.000000 0.000000 0.000000 0.000000 0.000000 0.000000 0.000000 0.000000 0.000000 0.000000 0.000000 0.000000 0.000000 0.000000 0.000000 0.000000 0.000000 0.000000 0.000000 0.000000 0.000000 0.000000 0.000000 0.000000 0.000000 0.000000 0.000000 0.000000 0.000000 0.000000 0.000000 0.000000 0.000000 0.000000 0.000000 0.000000 0.000000 0.000000 0.000000 -1.785101 -3.972147 37.781136 -7.895524 -31.051002 15.563951 1.066680 5.342059 28.595186 -7.249702 19.417619 8.824363 0.000000 0.000000 0.000000 0.000000 0.000000 0.000000 0.000000 0.000000 0.000000 0.000000 0.000000 0.000000 0.000000 0.000000 0.000000 0.000000 0.000000 0.000000 0.000000 0.000000 0.000000 0.000000 0.000000 0.000000 0.000000 0.000000 0.000000 0.000000 0.000000 0.000000 0.000000 0.000000 0.000000 0.000000 0.000000 0.000000 0.000000 0.000000 0.000000 0.000000 0.000000 0.000000
0.044932 -0.197106 1.310907 -8.509312 -1.224234 1.278547 -82.748021 -5.727170 -15.498405 128.350809 9.102004 -21.977557 -7.382008 -0.970492 8.004264 -0.273720 -0.749664 -0.649444 -85.397403 14.718124 14.767446 132.018047 -12.788009 13.218965 -10.550384 4.342493 -1.562767 -1.293395 -4.546352 -0.016296 78.905906 -2.118726 0.797114 -7.327871 -3.344032 -0.587001 3.070015 1.218121 0.675736 -7.873722 7.794655 6.131439 -24.055178 -4.771599 -8.064295 -4.584448 7.770766 -36.934182 -7.070922 29.969836 -19.393123 -1.552433 -3.021204 -23.282043 -7.530517 -26.541905 -8.833378 0.000000 0.000000 0.000000 0.000000 0.000000 0.000000 0.000000 0.000000 0.000000 0.000000 0.000000 0.000000 0.000000 0.000000 0.000000 0.000000 0.000000 0.000000 0.000000 0.000000 0.000000 0.000000 0.000000 0.000000 0.000000 0.000000 0.000000 0.000000 0.000000 0.000000 0.000000 0.000000 0.000000 0.000000 0.000000 0.000000 0.000000 0.000000 0.000000 0.000000 0.000000 0.000000 -1.670425 -4.180856 37.251014 -7.278295 -31.628563 15.384628 1.402776 5.671895 29.917217 -6.980072 19.966126 8.879955 0.000000 0.000000 0.000000 0.000000 0.000000 0.000000 0.000000 0.000000 0.000000 0.000000 0.000000 0.000000 0.000000 0.000000 0.000000 0.000000 0.000000 0.000000 0.000000 0.000000 0.000000 0.000000 0.000000 0.000000 0.000000 0.000000 0.000000 0.000000 0.000000 0.000000 0.000000 0.000000 0.000000 0.000000 0.000000 0.000000 0.000000 0.000000 0.000000 0.000000 0.000000 0.000000
0.046635 -0.194820 1.305842 -9.119846 -1.347400 1.272307 -82.571417 -5.981867 -15.597804 129.912134 8.846701 -22.679326 -8.390476 -1.573608 7.782426 -0.304219 -0.713781 -0.556524 -85.199583 14.899568 14.702504 133.635572 -12.258532 13.784841 -11.649562 4.898951 -1.464887 -1.293010 -4.716438 -0.150039 78.959593 -2.173863 0.748579 -7.109619 -3.304022 -0.556550 3.078625 1.285782 0.675269 -7.484410 7.643836 6.307060 -23.717076 -4.748779 -7.852742 -4.335146 7.808914 -36.396813 -6.749969 30.340707 -19.083868 -0.936084 -3.300624 -24.371000 -7.345627 -27.080724 -9.046473 0.000000 0.000000 0.000000 0.000000 0.000000 0.000000 0.000000 0.000000 0.000000 0.000000 0.000000 0.000000 0.000000 0.000000 0.000000 0.000000 0.000000 0.000000 0.000000 0.000000 0.000000 0.000000 0.000000 0.000000 0.000000 0.000000 0.000000 0.000000 0.000000 0.000000 0.000000 0.000000 0.000000 0.000000 0.000000 0.000000 0.000000 0.000000 0.000000 0.000000 0.000000 0.000000 -1.509249 -4.297493 36.713295 -6.670820 -32.112083 15.065530 1.841859 5.912281 31.469864 -6.809434 20.578784 9.037781 0.000000 0.000000 0.000000 0.000000 0.000000 0.000000 0.000000 0.000000 0.000000 0.000000 0.000000 0.000000 0.000000 0.000000 0.000000 0.000000 0.000000 0.000000 0.000000 0.000000 0.000000 0.000000 0.000000 0.000000 0.000000 0.000000 0.000000 0.000000 0.000000 0.000000 0.000000 0.000000 0.000000 0.000000 0.000000 0.000000 0.000000 0.000000 0.000000 0.000000 0.000000 0.000000
0.046968 -0.194846 1.299949 -9.950757 -1.413850 1.196532 -82.289955 -6.136762 -15.639273 131.504756 8.504737 -23.361413 -9.328522 -2.156671 7.653664 -0.326207 -0.708164 -0.485583 -84.960295 15.075758 14.745367 135.267464 -11.683416 14.357151 -12.642881 5.281383 -1.296668 -1.259724 -4.847338 -0.268739 79.035224 -2.288194 0.726677 -6.994894 -3.228732 -0.569173 3.132270 1.369984 0.659893 -7.051642 7.540154 6.360469 -23.273228 -4.696008 -7.603664 -4.035796 7.902375 -35.787683 -6.383507 30.744768 -18.775882 -0.253953 -3.662213 -25.453368 -7.250469 -27.574602 -9.287034 0.000000 0.000000 0.000000 0.000000 0.000000 0.000000 0.000000 0.000000 0.000000 0.000000 0.000000 0.000000 0.000000 0.000000 0.000000 0.000000 0.000000 0.000000 0.000000 0.000000 0.000000 0.000000 0.000000 0.000000 0.000000 0.000000 0.000000 0.000000 0.000000 0.000000 0.000000 0.000000 0.000000 0.000000 0.000000 0.000000 0.000000 0.000000 0.000000 0.000000 0.000000 0.000000 -1.405539 -4.464064 36.082623 -5.991752 -32.825566 14.767449 2.147854 6.429604 33.070826 -6.687676 21.343945 9.168668 0.000000 0.000000 0.000000 0.000000 0.000000 0.000000 0.000000 0.000000 0.000000 0.000000 0.000000 0.000000 0.000000 0.000000 0.000000 0.000000 0.000000 0.000000 0.000000 0.000000 0.000000 0.000000 0.000000 0.000000 0.000000 0.000000 0.000000 0.000000 0.000000 0.000000 0.000000 0.000000 0.000000 0.000000 0.000000 0.000000 0.000000 0.000000 0.000000 0.000000 0.000000 0.000000
0.046896 -0.196625 1.273407 -11.001668 -1.437752 1.202159 -82.672559 -6.361408 -16.091843 134.522202 8.034087 -24.275764 -12.996843 -4.152957 7.481001 -0.346090 -0.712317 -0.417684 -85.272998 15.241600 15.007078 138.296430 -10.944806 15.131739 -16.953646 6.837561 -1.061330 -1.258926 -4.961514 -0.380271 78.972581 -2.410900 0.744048 -6.763682 -3.124550 -0.568154 3.149140 1.405425 0.625733 -6.538191 7.389555 6.363472 -22.747237 -4.676204 -7.303181 -3.676120 7.853184 -34.669369 -5.890119 31.318477 -18.215655 0.009651 -5.009397 -28.079644 -7.162520 -27.982852 -9.479896 0.000000 0.000000 0.000000 0.000000 0.000000 0.000000 0.000000 0.000000 0.000000 0.000000 0.000000 0.000000 0.000000 0.000000 0.000000 0.000000 0.000000 0.000000 0.000000 0.000000 0.000000 0.000000 0.000000 0.000000 0.000000 0.000000 0.000000 0.000000 0.000000 0.000000 0.000000 0.000000 0.000000 0.000000 0.000000 0.000000 0.000000 0.000000 0.000000 0.000000 0.000000 0.000000 -1.209689 -4.407778 34.961346 -5.163491 -33.686749 14.187561 2.199963 7.254724 36.413937 -6.652336 21.912099 9.221168 0.000000 0.000000 0.000000 0.000000 0.000000 0.000000 0.000000 0.000000 0.000000 0.000000 0.000000 0.000000 0.000000 0.000000 0.000000 0.000000 0.000000 0.000000 0.000000 0.000000 0.000000 0.000000 0.000000 0.000000 0.000000 0.000000 0.000000 0.000000 0.000000 0.000000 0.000000 0.000000 0.000000 0.000000 0.000000 0.000000 0.000000 0.000000 0.000000 0.000000 0.000000 0.000000
